<?xml version="1.0" encoding="UTF-8"?>
<svg id="Capa_2" xmlns="http://www.w3.org/2000/svg" viewBox="0 0 200 184.18">
  <defs>
    <style>
      .cls-1 {
        fill: none;
        stroke: #96a743;
        stroke-miterlimit: 10;
        stroke-width: 6px;
      }
    </style>
  </defs>
  <g id="Capa_1-2" data-name="Capa_1">
    <g>
      <path class="cls-1" d="M3,6.16v171.86c0,1.75,1.42,3.16,3.16,3.16h187.67c1.75,0,3.16-1.42,3.16-3.16V29.31c0-1.75-1.42-3.16-3.16-3.16h-92.54c-.83,0-1.63-.33-2.22-.91L77.38,3.91c-.59-.58-1.39-.91-2.22-.91H6.16c-1.75,0-3.16,1.42-3.16,3.16Z"/>
      <path class="cls-1" d="M3,82.67l11.21-10.78c.59-.57,1.38-.88,2.19-.88h82.21c.89,0,1.73-.37,2.33-1.03l22.07-24.08c.6-.65,1.44-1.03,2.33-1.03h58.13c.82,0,1.6.32,2.19.88l11.21,10.78"/>
      <path class="cls-1" d="M15.12,69.95v-29.54c0-1.75,1.42-3.16,3.16-3.16h162.2c1.75,0,3.16,1.42,3.16,3.16v4.46"/>
      <path class="cls-1" d="M15.12,51.39c1.07-.41,102.8,0,102.8,0"/>
    </g>
  </g>
</svg>