<?xml version="1.0" encoding="UTF-8"?>
<svg id="Capa_2" xmlns="http://www.w3.org/2000/svg" viewBox="0 0 199.37 181.14">
  <defs>
    <style>
      .cls-1 {
        fill: none;
        stroke: #FFFFFF;
        stroke-miterlimit: 10;
        stroke-width: 6px;
      }

      .cls-2 {
        fill: #FFFFFF;
      }
    </style>
  </defs>
  <g id="Capa_1-2" data-name="Capa_1">
    <g>
      <path class="cls-1" d="M103.71,31.03c8.07,0,17.12,0,25.38,0,1.51,0,2.94,0,4.41,0,3.66-.02,5.18.25,7.4-2.03,4.05-4.22,5.66-11.94,5.53-18.86-.15-3.01.03-5.73-1.52-6.8-8.58-.72-34.82-.03-47.76-.26-.46,0-.82,0-1.28,0-11.4.23-34.53-.46-42.09.26-1.37,1.06-1.21,3.78-1.34,6.8-.12,6.92,1.3,14.64,4.88,18.86,1.96,2.29,3.29,2.02,6.52,2.03,1.29,0,2.56,0,3.89,0,7.28,0,15.26,0,22.37,0h13.61Z"/>
      <g>
        <path class="cls-1" d="M69.51,33.19v37.38c0,3.77-2.29,6.83-5.11,6.83-13.18,0-25.09.75-33.37,12.15-7.07,9.74-9.67,22.01-9.67,33.87.01,22.18,12.01,41.81,30.41,53.76.96.62,2.08.94,3.23.94h88.88c1.17,0,2.3-.34,3.28-.97,1.96-1.28,5.44-3.68,8.18-6.2"/>
        <path class="cls-1" d="M129.37,33.19v37.38c0,3.77,2.29,6.83,5.11,6.83,13.18,0,25.09.75,33.37,12.15,7.07,9.74,9.67,22.01,9.67,33.87,0,21.23-11,40.11-28.07,52.18"/>
      </g>
      <path class="cls-1" d="M171.48,94.21c1.99-.73,4.14-1.13,6.39-1.13,10.22,0,18.5,8.28,18.5,18.5s-8.28,18.5-18.5,18.5"/>
      <path class="cls-1" d="M27.89,94.21c-1.99-.73-4.14-1.13-6.39-1.13-10.22,0-18.5,8.28-18.5,18.5s8.28,18.5,18.5,18.5"/>
      <rect class="cls-1" x="68.64" y="125.2" width="25.76" height="25.76" rx="6" ry="6" transform="translate(-73.76 98.09) rotate(-45)"/>
      <rect class="cls-1" x="31.91" y="125.2" width="25.76" height="25.76" rx="6" ry="6" transform="translate(-84.52 72.11) rotate(-45)"/>
      <rect class="cls-1" x="105.37" y="125.2" width="25.76" height="25.76" rx="6" ry="6" transform="translate(-63 124.06) rotate(-45)"/>
      <rect class="cls-1" x="142.11" y="125.2" width="25.76" height="25.76" rx="6" ry="6" transform="translate(-52.24 150.04) rotate(-45)"/>
      <g>
        <circle class="cls-2" cx="62.87" cy="119.25" r="4"/>
        <circle class="cls-2" cx="99.87" cy="119.25" r="4"/>
        <circle class="cls-2" cx="136.87" cy="119.25" r="4"/>
      </g>
      <g>
        <circle class="cls-2" cx="62.87" cy="156.25" r="4"/>
        <circle class="cls-2" cx="99.87" cy="156.25" r="4"/>
        <circle class="cls-2" cx="136.87" cy="156.25" r="4"/>
      </g>
    </g>
  </g>
</svg>