<?xml version="1.0" encoding="UTF-8"?>
<svg id="Capa_2" xmlns="http://www.w3.org/2000/svg" viewBox="0 0 294.15 170.85">
  <defs>
    <style>
      .cls-1 {
        fill: none;
        stroke: #ffffff;
        stroke-miterlimit: 10;
        stroke-width: 6px;
      }
    </style>
  </defs>
  <g id="Capa_1-2" data-name="Capa_1">
    <g>
      <g>
        <path class="cls-1" d="M71.97,5.34l-.19,131.33c0,1.11.77,2.06,1.85,2.29,8.83,1.91,47.03,10.95,65.53,28.06,1.5,1.38,3.93.3,3.92-1.74l-.37-136.67c0-.59-.23-1.16-.63-1.59-3.23-3.48-19.76-18.56-67.5-24-1.39-.16-2.61.93-2.61,2.33Z"/>
        <path class="cls-1" d="M71.78,20.51c-13.67-5.09-31.23-4.4-37.3-3.97-1.23.09-2.17,1.11-2.17,2.34v126.6c0,1.39,1.2,2.47,2.58,2.33,10.36-1.04,50.8-3.43,100.2,15.73"/>
        <path class="cls-1" d="M32.31,43.68H5.34c-1.29,0-2.34,1.05-2.34,2.34v118.7c0,1.29,1.04,2.34,2.33,2.34l147.73.78"/>
      </g>
      <g>
        <path class="cls-1" d="M222.18,5.34l.19,131.33c0,1.11-.77,2.06-1.85,2.29-8.83,1.91-47.03,10.95-65.53,28.06-1.5,1.38-3.93.3-3.92-1.74l.37-136.67c0-.59.23-1.16.63-1.59,3.23-3.48,19.76-18.56,67.5-24,1.39-.16,2.61.93,2.61,2.33Z"/>
        <path class="cls-1" d="M222.37,20.51c13.67-5.09,31.23-4.4,37.3-3.97,1.23.09,2.17,1.11,2.17,2.34v126.6c0,1.39-1.2,2.47-2.58,2.33-10.36-1.04-50.8-3.43-100.2,15.73"/>
        <path class="cls-1" d="M261.84,43.68h26.96c1.29,0,2.34,1.05,2.34,2.34v118.7c0,1.29-1.04,2.34-2.33,2.34l-136,.77"/>
      </g>
      <line class="cls-1" x1="142.71" y1="28.61" x2="151.44" y2="28.61"/>
    </g>
  </g>
</svg>