<?xml version="1.0" encoding="UTF-8"?>
<svg id="Capa_2" xmlns="http://www.w3.org/2000/svg" viewBox="0 0 206.27 169.08">
  <defs>
    <style>
      .cls-1 {
        fill: none;
        stroke: #96a743;
        stroke-miterlimit: 10;
        stroke-width: 6px;
      }

      .cls-2 {
        fill: #96a743;
      }
    </style>
  </defs>
  <g id="Capa_1-2" data-name="Capa_1">
    <g>
      <path class="cls-1" d="M190.1,136.5c.03.86-.9,1.42-1.65,1-2.99-1.66-5.68-3.15-8.35-4.66-6.64-3.73-13.31-7.43-19.9-11.25-2.14-1.24-4.19-1.43-6.58-.92-22.71,4.84-43.61.84-61.66-14.06-28.72-23.69-28.15-64.72.87-88.32,27.72-22.55,70.29-19.85,94.82,6.02,19.31,20.36,20.91,50.37,3.77,72.58-1.68,2.18-2.45,4.31-2.34,7.05.42,10.67.69,21.35,1.03,32.56Z"/>
      <path class="cls-1" d="M127.72,121.21c-3.33,5.43-8.02,9.41-13.41,13.85-18.05,14.89-38.95,18.89-61.66,14.06-2.39-.51-4.44-.32-6.58.92-6.59,3.82-13.26,7.52-19.9,11.25-2.68,1.51-5.36,2.99-8.35,4.66-.75.42-1.67-.14-1.65-1,.33-11.21.61-21.88,1.03-32.56.11-2.74-.66-4.87-2.34-7.05C-2.28,103.12-.68,73.11,18.63,52.75c16.03-16.9,39.77-23.91,62.03-20.45"/>
      <g>
        <circle class="cls-2" cx="112.26" cy="61.12" r="7.57"/>
        <circle class="cls-2" cx="161.74" cy="61.12" r="7.57"/>
        <circle class="cls-2" cx="137" cy="61.12" r="7.57"/>
      </g>
      <g>
        <circle class="cls-2" cx="40.58" cy="91.06" r="7.57"/>
        <circle class="cls-2" cx="65.32" cy="91.06" r="7.57"/>
      </g>
    </g>
  </g>
</svg>