<?xml version="1.0" encoding="UTF-8"?>
<svg id="Capa_2" xmlns="http://www.w3.org/2000/svg" viewBox="0 0 207.9 185.32">
  <defs>
    <style>
      .cls-1 {
        fill: none;
        stroke: #96a743;
        stroke-miterlimit: 10;
        stroke-width: 6px;
      }

      .cls-2 {
        fill: #96a743;
      }
    </style>
  </defs>
  <g id="Capa_1-2" data-name="Capa_1">
    <g>
      <path class="cls-1" d="M103.55,119.53c.67,0,1.32-.23,1.84-.65,4.58-3.7,8.94-7.68,13.04-11.9,20.55-21.13,41.93-58.01,21.23-86.22-8.27-11.27-21.54-17.76-35.51-17.76h-.38c-13.97,0-27.24,6.5-35.51,17.76-20.7,28.21.68,65.09,21.23,86.22,4.29,4.41,8.86,8.56,13.67,12.4.11.09.26.14.4.14h0Z"/>
      <circle class="cls-1" cx="103.95" cy="49.81" r="16.48"/>
      <g>
        <path class="cls-1" d="M78.26,93.61H30.75c-1.29,0-2.42.85-2.79,2.08L3.12,178.57c-.56,1.87.84,3.75,2.79,3.75h98.1"/>
        <path class="cls-1" d="M129.64,93.61h47.5c1.29,0,2.42.85,2.79,2.08l24.84,82.88c.56,1.87-.84,3.75-2.79,3.75h-98.1"/>
      </g>
      <polyline class="cls-1" points="94.75 182.32 113.28 152.36 177.31 152.36 179.79 95.69"/>
      <polyline class="cls-1" points="30.61 93.61 53.36 130.34 113.28 152.36"/>
      <circle class="cls-2" cx="53.25" cy="128.82" r="7.5"/>
      <circle class="cls-2" cx="111.25" cy="152.82" r="7.5"/>
      <circle class="cls-2" cx="176.25" cy="150.82" r="7.5"/>
    </g>
  </g>
</svg>